<?xml version="1.0" encoding="UTF-8" standalone="no"?>
<!-- Created with Inkscape (http://www.inkscape.org/) -->

<svg
   xmlns:dc="http://purl.org/dc/elements/1.1/"
   xmlns:cc="http://creativecommons.org/ns#"
   xmlns:rdf="http://www.w3.org/1999/02/22-rdf-syntax-ns#"
   xmlns:svg="http://www.w3.org/2000/svg"
   xmlns="http://www.w3.org/2000/svg"
   xmlns:sodipodi="http://sodipodi.sourceforge.net/DTD/sodipodi-0.dtd"
   xmlns:inkscape="http://www.inkscape.org/namespaces/inkscape"
   width="1280"
   height="800"
   id="svg2"
   version="1.1"
   inkscape:version="0.48.3.1 r9886"
   sodipodi:docname="demo.svg">
  <defs
     id="defs4" />
  <sodipodi:namedview
     id="base"
     pagecolor="#ffffff"
     bordercolor="#666666"
     borderopacity="1.0"
     inkscape:pageopacity="0.0"
     inkscape:pageshadow="2"
     inkscape:zoom="0.50000001"
     inkscape:cx="465.26793"
     inkscape:cy="433.94653"
     inkscape:document-units="px"
     inkscape:current-layer="layer1"
     showgrid="false"
     inkscape:window-width="1216"
     inkscape:window-height="776"
     inkscape:window-x="64"
     inkscape:window-y="24"
     inkscape:window-maximized="1" />
  <metadata
     id="metadata7">
    <rdf:RDF>
      <cc:Work
         rdf:about="">
        <dc:format>image/svg+xml</dc:format>
        <dc:type
           rdf:resource="http://purl.org/dc/dcmitype/StillImage" />
        <dc:title />
      </cc:Work>
    </rdf:RDF>
  </metadata>
  <g
     inkscape:label="Trace"
     inkscape:groupmode="layer"
     id="layer1"
     transform="translate(0,-252.36218)"
     style="display:inline;opacity:1">
    <rect
       style="fill:#ff5a5a;fill-opacity:1;stroke:none;opacity:1"
       id="0"
       width="317.16354"
       height="198.22723"
       x="0"
       y="252.8231"
       inkscape:label="#rect3027" />
    <rect
       inkscape:label="#rect3027"
       y="-140.97162"
       x="514.66278"
       height="113.29568"
       width="181.27309"
       id="5"
       style="fill:#88bfff;fill-opacity:1;stroke:none;opacity:1"
       transform="matrix(0,1,-1,0,0,0)" />
    <rect
       style="fill:#88ff8b;fill-opacity:1;stroke:none;opacity:1"
       id="3"
       width="485.02826"
       height="303.14267"
       x="254.37097"
       y="-1057.7327"
       inkscape:label="#rect3027"
       transform="matrix(0,1,-1,0,0,0)" />
    <rect
       transform="matrix(0,1,-1,0,0,0)"
       inkscape:label="#rect3027"
       y="-1210.11"
       x="456.70792"
       height="303.14267"
       width="485.02826"
       id="4"
       style="fill:#8b88ff;fill-opacity:1;stroke:none;opacity:1" />
    <rect
       style="fill:#f8ff5a;fill-opacity:1;stroke:none;opacity:1"
       id="2"
       width="494.52057"
       height="309.07541"
       x="200.52051"
       y="513.05457"
       inkscape:label="#rect3027" />
    <rect
       inkscape:label="#rect3027"
       y="341.04431"
       x="147.263"
       height="67.959404"
       width="108.73504"
       id="6"
       style="fill:#ff88fd;fill-opacity:1;stroke:none;opacity:1" />
    <rect
       style="fill:#ff14fb;fill-opacity:1;stroke:none;opacity:1"
       id="7"
       width="45.853214"
       height="28.658264"
       x="353.46631"
       y="-231.94505"
       inkscape:label="#rect3027"
       transform="matrix(0,1,-1,0,0,0)" />
    <rect
       inkscape:label="#rect3027"
       y="523.46027"
       x="82.741364"
       height="198.22723"
       width="317.16354"
       id="1"
       style="fill:#ffb45a;fill-opacity:1;stroke:none;opacity:1"
       transform="matrix(0.8660254,-0.5,0.5,0.8660254,0,0)" />
    <rect
       inkscape:label="#rect3027"
       y="387.59451"
       x="217.19856"
       height="6.2500005"
       width="10"
       id="rect3004"
       style="fill:#831a9e;fill-opacity:1;stroke:none;opacity:1" />
    <rect
       style="fill:#58116a;fill-opacity:1;stroke:none;opacity:1"
       id="rect3774"
       width="3"
       height="1.8750001"
       x="389.99631"
       y="-224.47534"
       inkscape:label="#rect3027"
       transform="matrix(0,1,-1,0,0,0)" />
  </g>
  <g
     inkscape:groupmode="layer"
     id="layer2"
     inkscape:label="Lines"
     style="display:inline">
    <path
       transform="matrix(17.52064,0,0,17.52064,-3088.1342,-2067.4776)"
       d="m 212,126.125 a 3.625,3.625 0 1 1 -7.25,0 3.625,3.625 0 1 1 7.25,0 z"
       sodipodi:ry="3.625"
       sodipodi:rx="3.625"
       sodipodi:cy="126.125"
       sodipodi:cx="208.375"
       id="path3776"
       style="fill:#23d191;fill-opacity:1;stroke:none"
       sodipodi:type="arc" />
    <path
       transform="matrix(6.7921234,0,0,6.7921234,-1332.7051,-526.96019)"
       d="m 212,126.125 a 3.625,3.625 0 1 1 -7.25,0 3.625,3.625 0 1 1 7.25,0 z"
       sodipodi:ry="3.625"
       sodipodi:rx="3.625"
       sodipodi:cy="126.125"
       sodipodi:cx="208.375"
       id="path3784"
       style="fill:#23d191;fill-opacity:1;stroke:none"
       sodipodi:type="arc" />
    <path
       style="color:#000000;fill:none;stroke:#979797;stroke-width:30;stroke-linecap:butt;stroke-linejoin:miter;stroke-miterlimit:4;stroke-opacity:1;stroke-dasharray:none;stroke-dashoffset:0;marker:none;visibility:visible;display:inline;overflow:visible;enable-background:accumulate"
       d="M 30.149255,96.100323 C 901.04051,22.683734 1424.1837,480.65171 1157.2774,520.3644 782.39337,570.00288 263.14121,374.55867 90.960454,685.82738"
       id="path3002"
       inkscape:connector-curvature="0"
       sodipodi:nodetypes="ccc" />
    <path
       style="color:#000000;fill:none;stroke:#94adb9;stroke-width:40;stroke-linecap:butt;stroke-linejoin:miter;stroke-miterlimit:4;stroke-opacity:1;stroke-dasharray:none;stroke-dashoffset:0;marker:none;visibility:visible;display:inline;overflow:visible;enable-background:accumulate"
       d="M 518.05293,50.845495 C 55.319444,310.23055 -32.098946,451.85077 85.303584,514.70754 314.14022,646.339 751.20079,705.29866 1089.3952,658.95732"
       id="path3004"
       inkscape:connector-curvature="0"
       sodipodi:nodetypes="ccc" />
    <path
       sodipodi:nodetypes="ccc"
       inkscape:connector-curvature="0"
       id="path3774"
       d="M 78.232514,166.811 C 843.92924,241.90435 1104.5284,512.49081 1131.8216,568.44766 1245.7808,767.99809 254.52498,427.80608 65.504604,733.91064"
       style="color:#000000;fill:none;stroke:#363636;stroke-width:30;stroke-linecap:butt;stroke-linejoin:miter;stroke-miterlimit:4;stroke-opacity:1;stroke-dasharray:none;stroke-dashoffset:0;marker:none;visibility:visible;display:inline;overflow:visible;enable-background:accumulate" />
    <path
       sodipodi:type="arc"
       style="fill:#23d191;fill-opacity:1;stroke:none"
       id="path3805"
       sodipodi:cx="208.375"
       sodipodi:cy="126.125"
       sodipodi:rx="3.625"
       sodipodi:ry="3.625"
       d="m 212,126.125 a 3.625,3.625 0 1 1 -7.25,0 3.625,3.625 0 1 1 7.25,0 z"
       transform="matrix(3.0859084,0,0,3.0859084,-467.7915,-256.79661)" />
    <path
       transform="matrix(1.1410416,0,0,1.1410416,-22.097878,-20.48427)"
       d="m 212,126.125 a 3.625,3.625 0 1 1 -7.25,0 3.625,3.625 0 1 1 7.25,0 z"
       sodipodi:ry="3.625"
       sodipodi:rx="3.625"
       sodipodi:cy="126.125"
       sodipodi:cx="208.375"
       id="path3807"
       style="fill:#23d191;fill-opacity:1;stroke:none"
       sodipodi:type="arc" />
    <path
       sodipodi:type="arc"
       style="fill:#23d191;fill-opacity:1;stroke:none"
       id="path3809"
       sodipodi:cx="208.375"
       sodipodi:cy="126.125"
       sodipodi:rx="3.625"
       sodipodi:ry="3.625"
       d="m 212,126.125 a 3.625,3.625 0 1 1 -7.25,0 3.625,3.625 0 1 1 7.25,0 z"
       transform="matrix(0.14530853,0,0,0.14530853,189.81009,119.62682)" />
    <path
       transform="matrix(0.09138667,0,0,0.09138667,204.62945,128.16648)"
       d="m 212,126.125 a 3.625,3.625 0 1 1 -7.25,0 3.625,3.625 0 1 1 7.25,0 z"
       sodipodi:ry="3.625"
       sodipodi:rx="3.625"
       sodipodi:cy="126.125"
       sodipodi:cx="208.375"
       id="path3811"
       style="fill:#23d191;fill-opacity:1;stroke:none"
       sodipodi:type="arc" />
    <path
       sodipodi:type="arc"
       style="fill:#23d191;fill-opacity:1;stroke:none"
       id="path3778"
       sodipodi:cx="208.375"
       sodipodi:cy="126.125"
       sodipodi:rx="3.625"
       sodipodi:ry="3.625"
       d="m 212,126.125 a 3.625,3.625 0 1 1 -7.25,0 3.625,3.625 0 1 1 7.25,0 z"
       transform="matrix(13.619361,0,0,13.619361,-2466.1241,-1231.7749)" />
    <path
       transform="matrix(27.859029,0,0,27.859029,-4717.0156,-3162.8104)"
       d="m 212,126.125 a 3.625,3.625 0 1 1 -7.25,0 3.625,3.625 0 1 1 7.25,0 z"
       sodipodi:ry="3.625"
       sodipodi:rx="3.625"
       sodipodi:cy="126.125"
       sodipodi:cx="208.375"
       id="path3780"
       style="fill:#23d191;fill-opacity:1;stroke:none"
       sodipodi:type="arc" />
    <path
       sodipodi:type="arc"
       style="fill:#23d191;fill-opacity:1;stroke:none"
       id="path3782"
       sodipodi:cx="208.375"
       sodipodi:cy="126.125"
       sodipodi:rx="3.625"
       sodipodi:ry="3.625"
       d="m 212,126.125 a 3.625,3.625 0 1 1 -7.25,0 3.625,3.625 0 1 1 7.25,0 z"
       transform="matrix(14.399617,0,0,14.399617,-2123.8356,-1632.8264)" />
  </g>
</svg>
